<svg xmlns="http://www.w3.org/2000/svg" width="290.345" height="290.345" viewBox="0 0 290.345 290.345"><path d="M259.236,32H31.108A31.116,31.116,0,0,0,0,63.108V291.236a31.116,31.116,0,0,0,31.108,31.108H259.236a31.116,31.116,0,0,0,31.108-31.108V63.108A31.116,31.116,0,0,0,259.236,32ZM158,258.443C158,286.7,141.413,299.6,117.24,299.6c-21.841,0-34.478-11.277-40.959-24.952L98.51,261.23c4.277,7.583,8.166,14,17.563,14,8.944,0,14.647-3.5,14.647-17.174V165.312H158v93.131Zm64.55,41.154c-25.34,0-41.737-12.055-49.709-27.868L195.075,258.9c5.833,9.527,13.48,16.591,26.9,16.591,11.277,0,18.535-5.638,18.535-13.48,0-9.332-7.388-12.638-19.9-18.147l-6.8-2.916c-19.7-8.36-32.729-18.924-32.729-41.154,0-20.48,15.619-36.034,39.922-36.034,17.369,0,29.812,6.027,38.756,21.841L238.5,199.207c-4.666-8.36-9.721-11.666-17.563-11.666-7.972,0-13.027,5.055-13.027,11.666,0,8.166,5.055,11.471,16.786,16.591l6.8,2.916c23.2,9.916,36.228,20.091,36.228,42.9,0,24.5-19.313,37.978-45.172,37.978Z" transform="translate(0 -32)" fill="#080059"/></svg>