<svg xmlns="http://www.w3.org/2000/svg" width="1172.163" height="1172.118" viewBox="0 0 1172.163 1172.118"><g transform="translate(-223.595 -36.597)"><g transform="translate(223.595 36.597)"><path d="M1101.928,762.935c14.242,85.2,73.957,96.944,65.212,149.164-16.241,95.695-238.862,183.394-398.52,119.181-64.962-26.235-110.436-79.2-201.634-185.143C518.015,789.169,433.314,679.233,411.576,651c-20.488-26.485-30.982-39.727-31.732-41.476-41.226-106.439,3.248-350.548,87.7-431.251,9.245-8.745,21.987-12.992,44.474-23.986C664.68,79.08,830.834-2.623,919.783,57.342c64.963,43.725,44.224,132.923,131.174,172.9,33.481,15.491,43.725,5.5,68.96,21.737,76.956,49.971,65.462,195.387,62.964,223.121C1168.389,626.513,1084.188,657.246,1101.928,762.935Z" transform="translate(-12.794 -36.597)" fill="#165ad3" opacity="0.22"/><path d="M556.166,852.193c-188.141,5-406.265-482.721-308.322-567.172,54.469-46.973,151.912,77.455,399.519,91.947,243.609,14.242,353.046-93.946,439.246-22.987,81.7,67.211,78.2,242.86,5.247,296.579-52.22,38.478-104.44-11.743-210.129,2.249C700.832,676.794,667.1,849.195,556.166,852.193Z" transform="translate(-223.595 319.887)" fill="#3e00d6" opacity="0.76"/><path d="M1316.1,383.9c57.467,148.414-11.743,382.779-113.934,433-104.939,51.72-165.155-130.175-375.533-218.124-289.083-120.68-488.968,91.7-553.181-34.98-46.973-92.946,9.494-308.572,110.936-380.78,122.679-87.449,205.881,109.437,450.99,86.95,139.17-12.743,196.137-83.952,321.814-32.981C1195.918,252.473,1278.37,285.954,1316.1,383.9Z" transform="translate(-173.995 149.052)" fill="#27ffd5" opacity="0.22"/><circle cx="189.89" cy="189.89" r="189.89" transform="translate(161.919 23.743)" fill="#fff315"/><circle cx="38.228" cy="38.228" r="38.228" transform="translate(110.449 391.531)" fill="#ff64f8"/></g><g transform="translate(591.892 586.535)"><path d="M557.394,259.449c-4.248-.75-55.718-9.245-103.44,8a91.442,91.442,0,0,0-12.993,5.747c-13.992,8.245-24.736,21.488-45.224,77.455-10.744,29.733-16.241,44.724-18.489,60.715-3,22.237-1,34.73,0,56.967,2.5,61.714-9.744,78.7-5.247,96.444,19.988,82.2,382.279,141.918,457.736,2.748,27.484-50.471,13.242-120.43,6.5-153.411-9.495-46.223-19.988-95.2-59.466-128.176C726.3,243.708,683.321,280.187,557.394,259.449Z" transform="translate(-370.999 -256.699)" fill="#8585c6"/><path d="M582.863,330.182c-33.731-10.744-124.678,117.682-99.692,147.165,7.5,8.745,28.733,10.994,88.2-15.241,12.243-5.5,38.478-24.486,42.475-53.719,2-14.492-2.5-26.984-6.5-38.478C601.852,354.918,594.357,333.93,582.863,330.182Z" transform="translate(-209.327 -147.536)" fill="#5757b5"/><path d="M588.618,531.877c40.477-8.995,67.211-93.946,61.215-207.38a166.86,166.86,0,0,0-46.473-8c-5.747-.25-79.2,15.241-141.668,64.213-15.991,12.493-41.726,47.473-16.241,81.953,12.743,16.99,34.48,28.484,54.968,38.978C547.391,525.381,571.628,535.625,588.618,531.877Z" transform="translate(-275.546 -167.087)" fill="#8585c6"/><path d="M595.8,335.7" transform="translate(-34.122 -138.313)" fill="#12125b"/></g><g transform="translate(975.691 612.492)"><path d="M545.577,267.118c23.736-1.749,46.973,74.207,54.219,97.194,24.236,78.954,9.744,163.655,9.744,163.655h0c-1.5-104.939-10.994-125.428-10.994-125.428-21.737-46.223-49.721-69.96-49.721-69.96-10.244-8.745-22.237-16.49-23.986-30.233C522.841,286.856,534.084,267.867,545.577,267.118Z" transform="translate(-524.607 -267.088)" fill="#12125b" opacity="0.19"/></g><g transform="translate(771.863 529.994)"><path d="M445.455,242.39c-8.745,7.5,9.495,30.482,2.5,69.71-1.5,8.5-3,10.744-1.5,15.491,6.5,19.988,51.97,25.735,86.2,17.74,15.741-3.5,36.229-8.245,42.476-23.486,5.247-13.242-4.248-20.988-4-49.971.25-23.736,6.746-32.731,1.749-36.729C563.637,227.9,542.4,259.63,507.42,260.63,474.189,261.379,454.7,234.395,445.455,242.39Z" transform="translate(-443.029 -234.07)" fill="#f4b489"/></g><g transform="translate(725.259 283.662)"><path d="M451.92,158.766c13.242-11.993,27.484-14.991,44.974-18.489,18.489-4,58.716-12.243,92.7,10.494,26.485,17.74,35.479,45.224,41.476,63.463,9.744,29.733,7.5,55.218,4.5,89.948-1.749,20.238-4.747,30.982-8,39.727-7.246,19.239-17.49,31.732-25.485,41.476-12.993,15.741-28.234,33.731-53.719,41.476-7,2-18.739,5.5-32.731,1.749-9.494-2.5-16.241-7.5-23.736-14.242-13.492-11.993-31.732-27.984-45.973-57.467-9.994-20.988-12.743-37.978-16.74-61.714-3-17.49-5.747-33.98-4.5-55.718C426.185,213.984,427.933,180.254,451.92,158.766Z" transform="translate(-424.376 -135.48)" fill="#efc3a5"/><path d="M510,305.7" transform="translate(-296.064 119.604)" fill="#bca595"/></g><g transform="translate(730.416 308.197)"><path d="M436.334,153.8c-1.749,13.742-4,34.23-6,59.965-.25,3.248-.5,5.5-.75,8.5-2.5,29.983-4.5,55.718-2,82.7,2,23.237,3.248,36.979,11.743,53.469,10.994,21.238,29.983,38.728,34.98,35.479,4.747-2.748-2-22.237-9.245-43.475-9.744-28.733-15.491-32.231-20.988-54.219-2.748-11.243-6-23.736-5-39.977,1-18.239,5.747-21.737,10.244-54.718,1.5-10.494,2.249-19.988,0-30.482a88.546,88.546,0,0,0-7.5-20.488,47.523,47.523,0,0,0-2.748-5.247" transform="translate(-426.44 -145.3)" fill="#f4b489"/></g><g transform="translate(750.553 380.156)"><g transform="translate(111.686 2.499)"><path d="M547.66,194.589s-1-.75-2.5-1.749a70.594,70.594,0,0,0-7.246-4.248c-1.5-.75-3.248-1.5-5-2.249a38.842,38.842,0,0,0-5.747-2A54.5,54.5,0,0,0,514.43,182.1h-6.5c-1.249,0-2,.25-3.248.25-1,.25-2,.25-3,.5-2,.25-4,.5-5.747.75s-3.748.5-5.247.75q-2.623.375-4.5.75c-1.5.25-2.5.5-3.5.75-2,.25-3.248.5-3.248.5l-.25-.75a12.127,12.127,0,0,1,2.5-2.249,32.492,32.492,0,0,1,7.5-4.747,35.658,35.658,0,0,1,5.5-2,49.888,49.888,0,0,1,6.5-1.249c1.249,0,2.249-.25,3.5-.25a18.909,18.909,0,0,1,3.748.25l1.749.25c.75,0,1.249.25,2,.25,1.249.25,2.5.25,3.748.5a51.671,51.671,0,0,1,13.742,4.248c2,1,4,2,5.747,3a22.642,22.642,0,0,1,4.747,3.248,44.493,44.493,0,0,1,6.746,5.5l2.249,2.249Z" transform="translate(-479.2 -175.1)" fill="#12125b"/></g><path d="M434.5,188.841a23.487,23.487,0,0,1,2-2.249,36.983,36.983,0,0,1,6.246-5.5c.25-.25.75-.5,1-.75l.25-.25.5-.25.5-.25a23.219,23.219,0,0,1,2.5-1.249,29.316,29.316,0,0,1,2.748-1.249,15.289,15.289,0,0,0,3-1.249,27.212,27.212,0,0,1,6.5-1.249,61.418,61.418,0,0,1,7-.5,32.991,32.991,0,0,1,7,.5,32.021,32.021,0,0,1,6.746,1.249,39.258,39.258,0,0,1,5.747,2.249,32,32,0,0,1,5,2.748,39.995,39.995,0,0,1,8.745,7.5l-.5.75s-1.249-.25-3-.75c-1-.25-2-.5-3.5-.75-1.249-.5-2.748-.75-4.248-1.249a29.228,29.228,0,0,0-5-1.249c-1.749-.5-3.5-1-5.5-1.5-1.749-.5-3.748-1.249-5.747-1.749l-3-.75a12.54,12.54,0,0,0-3-.5,26.184,26.184,0,0,0-6.246-.25,48.513,48.513,0,0,0-6,.5,10.626,10.626,0,0,1-2.748.5,11.265,11.265,0,0,0-2.748.75,7.482,7.482,0,0,0-2.5,1l-.75.25h-.5c-.5.25-.749.25-1,.5-3,1.249-5,3-6.746,4-1.5,1.249-2.249,2-2.249,2Z" transform="translate(-434.5 -174.1)" fill="#12125b"/></g><g transform="translate(592.495 212.397)"><path d="M616.248,116.557c23.736,1.249,25.735-8,43.225-6.246,30.232,3,50.721,34.48,61.714,51.22,18.739,28.484,9.994,33.73,31.981,69.21,15.741,25.485,23.487,27.734,30.732,48.722,5.747,16.99,7.246,34.23,8.5,50.721,1,10.994,1,17.74,2.748,41.226,1,12.243,2.249,24.986,7.246,34.73a44.786,44.786,0,0,1,3.748,8.745c2.249,8,.25,12.992,6,23.237,5.747,9.994,9.494,8.245,14.991,18.489,2.249,4.5,8.245,15.491,5.247,27.484-2.5,10.244-8.745,9.994-10.494,20.238-1.249,7,0,17.24,6.246,22.987,6.5,6,12.993,2.5,16.74,7,5.5,6.746-.25,25.235-12.243,36.229-21.987,19.989-47.972-.5-69.71,17.74-17.24,14.492-9.994,34.98-29.233,44.224-8.745,4.248-21.238,5-30.982,0-13.242-6.746-10.994-19.239-22.987-24.736-12.743-5.747-32.231.25-37.978,11.493-7.5,14.492,9.245,33.98,7,35.23-2.748,1.749-38.478-29.233-37.978-71.459,0-12.243,3.5-21.238,10.494-39.727,6-15.741,21.238-61.464,41.476-66.212,1.749-.5,7.5-1.5,11.244-6,3.5-4,4-9.245,4-12.493-1-7.5-1.5-18.739,4-29.483,5.5-11.243,10.244-10.744,14.991-20.738,7.246-14.991-2.5-20.238,1.749-47.972,1.5-10.494,4-17.24,3.248-28.733a62.353,62.353,0,0,0-4-17.99c-1.749-4.747-4-8-4.5-9.245-7.746-18.989-5-28.234-8.745-46.723-2.748-13.742-6.746-33.481-21.737-49.222-18.739-19.239-43.975-21.737-52.719-21.987-27.984-1-47.223,12.743-53.469,17.24-3,2.249-23.486,17.74-32.481,44.974-2.249,6.5-3.248,14.741-5.247,30.982-2,15.741-2.749,27.484-3.5,40.477-1.5,21.987-2.249,33.231-1,44.224,1.5,12.243,3,24.986,10.494,38.728a210.728,210.728,0,0,0,12.243,19.489c7.246,9.245,11.244,10.744,13.992,18.239,1.5,4.248.75,4.5,2.249,17.99,1.5,12.743,2.249,12.743,2.748,18.739.25,3,1,16.49-4.747,27.734-7,13.992-21.488,19.489-33.481,24.236-21.737,8.5-26.235,2.249-36.729,9.744-17.24,12.493-8.745,32.981-24.236,41.976-14.492,8.5-36.729-1-48.722-10.494-8-6.5-11.993-12.993-17.24-22.487-10.494-18.739-26.485-46.973-16.99-76.206,2-6.5,7.246-22.487,21.238-29.233,11.993-5.747,17.74-.5,25.485-7,9.494-8,9.744-22.987,9.744-28.234,0-12.493-4.5-13.242-5.247-26.485-1-14.991,4-27.234,7-34.48,6.246-14.741,9.994-13.492,16.74-28.234,3-6.746,9.245-20.738,8.745-37.978-.5-18.989-8.5-20.488-8.745-38.728,0-5.247-.5-24.236,11.493-38.728,11.743-14.242,23.486-9.245,33.481-23.736,7.5-10.994,2.249-15.491,10.494-29.983,7.246-12.992,17.49-19.988,25.485-25.485,8.995-6.246,19.739-13.742,34.48-15.991C585.766,103.815,591.013,115.058,616.248,116.557Z" transform="translate(-371.24 -106.958)" fill="#12125b"/></g><g transform="translate(816.265 408.139)"><path d="M472.293,185.3a121.415,121.415,0,0,1-3.248,40.227h0L463.3,245.016v-.75a12.657,12.657,0,0,0,1.749,3.748,31.661,31.661,0,0,0,2.748,3.248,6.439,6.439,0,0,0,3.248,2,4.878,4.878,0,0,0,1.749.25,7.725,7.725,0,0,0,2-.5c1.249-.5,2.748-1.249,4-1.749a28.75,28.75,0,0,1,4.248-1.5,28.3,28.3,0,0,1,8.995-1.5v.25a47.627,47.627,0,0,0-8.5,2.5c-2.748,1.249-5.247,2.748-8,4a7.332,7.332,0,0,1-2.5.75,10.078,10.078,0,0,1-2.748,0,13.1,13.1,0,0,1-4.5-2.5l-1.749-1.749a13.86,13.86,0,0,1-1.5-2,16.741,16.741,0,0,1-1.749-4.5v-.5l6.246-19.239h0c4.247-12.993,5.247-26.485,5.247-39.977Z" transform="translate(-460.8 -185.3)" fill="#12125b"/></g><g transform="translate(791.159 493.293)"><path d="M452.871,227.174c5.747,8.995,16.99,11.493,24.736,12.993a79.135,79.135,0,0,0,25.735.75c9.744-1,23.486-2.748,30.732-12.493.75-1,4-5.5,2.5-7.746-1.749-2.748-8.745-.5-15.491,1-12.493,2.748-35.729,8-55.718,1.749-5.747-1.749-12.743-5-14.242-2.5C449.873,222.426,452.122,226.174,452.871,227.174Z" transform="translate(-450.752 -219.381)" fill="#fff"/></g><g transform="translate(783.226 489.712)"><g transform="translate(0 0)"><path d="M459.345,238.567a41.8,41.8,0,0,0-9.245-8l5.5-1.249a87.915,87.915,0,0,0,16.99,9.245c6.246,2.5,14.492,5.747,24.736,5.5,21.488-.75,39.227-16.99,37.728-20.238-.5-1.249-4-1-8-.5l-.5-4c10.994-1.5,23.736-2.249,24.236.25.5,2-7.5,2.748-14.492,10.994-4,4.747-3.248,7-7.746,14.242-3.5,5.747-6.746,11.243-12.743,14.991-11.244,7.5-24.486,4.747-28.483,3.748-4.248-1-11.493-2.5-17.49-8.245C463.592,249.81,465.591,246.062,459.345,238.567Z" transform="translate(-443.795 -217.948)" fill="#f79797"/><path d="M524.208,218.537l.5,4c-5.247.75-11.993,2.5-14.991,3.248-8,2.249-7,2.5-11.493,3.248-8.745,1.5-12.992-.5-32.481-3.748-8.245-1.249-12.243-1.749-14.242-1.749v-4a.918.918,0,0,0,.75-.25,53.943,53.943,0,0,1,19.988.25c10.244,1.749,14.741,5.247,25.235,4.248,5.247-.5,6.5-1.5,13.242-3.248C513.464,220.037,518.711,219.287,524.208,218.537Z" transform="translate(-441.697 -217.157)" fill="#f79797"/><path d="M459.129,228.145l-5.5,1c-3.748-2.5-6.5-3.748-6-5.747.5-2.748,5.747-3.748,9.744-4.5v4c-1.749,0-2,.25-2,.5C454.881,224.4,456.63,226.146,459.129,228.145Z" transform="translate(-447.577 -216.521)" fill="#f79797"/></g></g><g transform="translate(772.01 399.209)"><path d="M443.118,188.407c-.5,3.248,5.247,6.5,7.746,7.5,2.249,1,5,1.749,11.743,1.249,4.747-.5,18.489-1.5,18.989-5.747.5-3-6.5-6.746-11.244-8.245C458.36,179.413,443.618,183.66,443.118,188.407Z" transform="translate(-443.088 -181.726)" fill="#fff"/><path d="M479.506,190.575c-.25,2.748,4,5.247,5.5,6.246,9.994,6,25.985,4,31.732-4.747,1-1.249,2.249-3.248,1.5-5-1.5-5-14.492-5.247-23.237-4C493.248,183.579,479.756,185.828,479.506,190.575Z" transform="translate(-388.528 -180.645)" fill="#fff"/></g><g transform="translate(778.389 396.033)"><path d="M446.289,184.066c-1.749,3,.25,8,3.5,10.994a10.948,10.948,0,0,0,12.493.75c3.748-2.249,6.5-7,5.247-10.244C465.278,179.568,449.537,178.569,446.289,184.066Z" transform="translate(-445.641 -180.455)" fill="#12125b"/><path d="M482.872,186.317c-1.249,3.248,1.749,8.245,6,10.494,1.249.5,4.248,2,7.746.75,5.5-1.749,8.245-8.995,6.5-12.493C500.112,179.821,485.12,180.821,482.872,186.317Z" transform="translate(-390.276 -178.709)" fill="#12125b"/></g><g transform="translate(762.485 393.663)"><path d="M477.777,198.971c-.75-.75,1.749-8,8.245-12.992,10.744-8.5,24.236-4.747,27.484-4,5.247,1.5,14.991,5.247,14.991,9.994a4.282,4.282,0,0,1-2.749,4c-4,1.5-7.5-5.747-16.99-8.745a23.331,23.331,0,0,0-9.245-1.249C487.022,186.728,479.026,199.97,477.777,198.971Z" transform="translate(-381.771 -177.998)" fill="#5757b5"/><path d="M489.558,195.732c.75-.75-3.5-7.5-10.744-11.743-1.5-1-11.743-6.746-23.736-3.5-.75.25-14.742,4.248-15.741,12.493-.25,2,.25,4.747,1.749,5.247,2.249,1,5-5,11.493-8.995a26.506,26.506,0,0,1,15.991-3.248C481.063,186.987,488.808,196.731,489.558,195.732Z" transform="translate(-439.275 -179.506)" fill="#5757b5"/></g><g transform="translate(564.339 700.236)"><path d="M805.892,335.672c-8.245-7-17.49-9.245-23.237-10.744-179.147-43.475-368.287-12.993-397.77-3a41.711,41.711,0,0,0-12.493,6.746C359.4,339.419,359.9,356.16,360.15,363.406c5,122.929,7.5,184.393,33.731,206.381,32.981,27.234,76.206,30.233,159.908,35.979,71.709,4.747,122.429-5,152.662-11.243,52.47-10.744,78.7-16.491,95.695-36.729,13.242-15.991,8.745-25.235,13.492-98.443C820.384,384.643,827.88,354.161,805.892,335.672Z" transform="translate(-359.828 -302.206)" fill="#cfcfd1"/><path d="M799.4,339.6c-8.245-7-17.24-9.245-22.987-10.744-176.4-43.225-363.04-11.993-392.024-1.749a38.455,38.455,0,0,0-12.243,6.746c-12.743,10.744-12.243,27.484-11.993,34.73C364.9,491.508,367.4,552.973,393.381,574.71c32.481,27.234,74.957,29.983,157.659,35.48,70.709,4.747,120.43-5.5,150.413-11.743,51.72-10.744,77.455-16.49,94.2-36.979,13.242-15.991,8.5-25.235,13.242-98.443C813.638,388.568,821.134,358.086,799.4,339.6Z" transform="translate(-359.828 -295.637)" fill="#fff"/><path d="M434.5,497.211c-60.215-48.722-32.231-180.146-51.97-182.395-3.5-.5-9.744,6-10.494,6.746h0a25.557,25.557,0,0,1-7.246,5.747,67.017,67.017,0,0,0-3.248,10.494c-2.249,9.744-1.5,17.49-1.249,23.736.75,10.244.25,20.488,1,30.732,4,50.721-4.248,80.2,8,122.679,7,23.736,10.494,35.48,20.738,47.473,23.986,27.484,61.215,28.733,133.673,35.48,34.73,3.248,65.712,1.749,80.2,1a668.708,668.708,0,0,0,83.2-9.744,737.46,737.46,0,0,0,91.447-22.487,72.952,72.952,0,0,0,19.239-21.488c11.244-19.489,9.494-38.728,8.5-45.724C729.58,511.2,602.653,526.694,492.717,515.95,471.479,514.2,451.99,511.2,434.5,497.211Z" transform="translate(-359.971 -283.35)" fill="#cfcfd1" opacity="0.1"/><path d="M437.1,380.986c0,13.742,12.493,24.986,27.984,24.986,15.241,0,27.484-11.244,27.484-24.986S480.325,356.25,465.084,356C449.593,356,437.1,366.994,437.1,380.986Z" transform="translate(-244.389 -221.593)" fill="#3e00d6" opacity="0.1"/></g></g></svg>