<svg xmlns="http://www.w3.org/2000/svg" viewBox="0 0 1240 320">
    <defs>
        <linearGradient id="gradient">
        <stop offset="5%" stop-color="#533DE2" />
        <stop offset="95%" stop-color="#7C25C6" />
        </linearGradient>
    </defs>
    <path fill="url(#gradient)" fill-opacity="1" 
    d="M0,32L48,64C96,96,192,160,288,181.3C384,203,480,181,576,149.3C672,117,768,75,864,90.7C960,107,1056,181,1152,208C1248,235,
    1344,213,1392,202.7L1440,192L1440,320L1392,320C1344,320,1248,320,1152,320C1056,320,960,320,864,320C768,320,672,320,576,
    320C480,320,384,320,288,320C192,320,96,320,48,320L0,320Z"></path>
</svg>