<svg xmlns="http://www.w3.org/2000/svg" width="242.605" height="181.971" viewBox="0 0 242.605 181.971"><path d="M114.422,153.576C114.308,153.8,114.195,153.986,114.422,153.576ZM208.861,120.6a49.719,49.719,0,0,0-21.986,5.117c-2.237-4.511-4.549-8.453-4.928-11.41-.455-3.45-.948-5.5-.417-9.591s2.919-9.894,2.881-10.311-.531-2.5-5.421-2.54-9.1.948-9.587,2.237a46.559,46.559,0,0,0-2.009,7.24c-.872,4.435-9.776,20.281-14.818,28.544-1.668-3.222-3.071-6.065-3.374-8.34-.455-3.45-.948-5.5-.417-9.591s2.919-9.894,2.881-10.311-.531-2.5-5.417-2.54-9.1.948-9.591,2.237-1.023,4.321-2.009,7.24-12.847,29.3-15.951,36.164c-1.592,3.488-2.957,6.293-3.942,8.188-.152.3-.265.493-.341.644.114-.19.19-.379.19-.3-.834,1.63-1.327,2.54-1.327,2.54v.038c-.644,1.213-1.365,2.312-1.706,2.312-.227,0-.72-3.184.114-7.544,1.782-9.174,5.989-23.427,5.951-23.92-.038-.265.8-2.729-2.767-4.056a4.462,4.462,0,0,0-5,.834c-.3,0-.531.758-.531.758s3.829-16.073-7.35-16.073c-6.975,0-16.679,7.657-21.448,14.594-2.995,1.63-9.477,5.155-16.3,8.908-2.616,1.44-5.307,2.919-7.847,4.321-.19-.19-.341-.379-.531-.569C42.292,120.938,17.243,110.7,18.3,91.257c.379-7.089,2.843-25.7,48.169-48.294,37.149-18.5,66.85-13.419,71.964-2.123,7.354,16.111-15.879,46.1-54.458,50.417-14.7,1.63-22.434-4.056-24.367-6.179-2.009-2.237-2.312-2.35-3.071-1.933-1.251.682-.455,2.654,0,3.829,1.137,2.995,5.876,8.3,13.946,10.955,7.089,2.312,24.329,3.6,45.174-4.473,23.419-9.022,41.649-34.155,36.3-55.193-5.444-21.38-40.895-28.393-74.416-16.49C57.576,28.861,35.976,40.006,20.438,54.524,1.981,71.81-.972,86.859.241,93.152c4.318,22.328,35.091,36.884,47.407,47.65-.607.341-1.175.644-1.706.948-6.175,3.071-29.636,15.353-35.508,28.317-6.634,14.708,1.1,25.246,6.175,26.687,15.842,4.4,32.062-3.525,40.777-16.528s7.657-29.985,3.639-37.718c-.038-.114-.114-.19-.152-.3,1.592-.948,3.222-1.9,4.852-2.843,3.143-1.857,6.213-3.563,8.9-5.042a58.88,58.88,0,0,0-3.184,16.149c-.682,8.34,2.767,19.143,7.24,23.389a7.956,7.956,0,0,0,5.834,1.9c5.231,0,7.581-4.321,10.193-9.477,3.222-6.293,6.065-13.609,6.065-13.609s-3.563,19.788,6.179,19.788c3.56,0,7.123-4.587,8.719-6.937v.038s.076-.152.265-.455c.379-.569.569-.91.569-.91v-.114c1.44-2.464,4.587-8.112,9.321-17.437,6.141-12.055,12.013-27.1,12.013-27.1a76.286,76.286,0,0,0,2.35,9.78c1.061,3.6,3.3,7.544,5.08,11.372-1.44,1.971-2.312,3.108-2.312,3.108a.117.117,0,0,0,.038.076c-1.137,1.516-2.426,3.146-3.753,4.738-4.848,5.762-10.614,12.358-11.372,14.253-.91,2.237-.682,3.9,1.061,5.193,1.289.986,3.563,1.137,5.948.948a26.287,26.287,0,0,0,8.908-2.047,31.16,31.16,0,0,0,7.654-4.018,17.113,17.113,0,0,0,7.354-15.087,31.394,31.394,0,0,0-2.767-10.69c.417-.607.872-1.251,1.289-1.9a201.521,201.521,0,0,0,13.3-22.98,76.289,76.289,0,0,0,2.35,9.78,66.862,66.862,0,0,0,4.318,9.742c-7.047,5.724-11.406,12.358-12.923,16.717-2.805,8.074-.607,11.713,3.525,12.547,1.857.379,4.511-.493,6.482-1.327a30.121,30.121,0,0,0,8.184-4.208c4.738-3.488,9.321-8.378,9.018-15.011a28.2,28.2,0,0,0-2.047-8.87c5.951-2.5,13.681-3.867,23.537-2.729,21.107,2.464,25.239,15.656,24.443,21.152s-5.231,8.567-6.71,9.477-1.933,1.251-1.82,1.933c.19.986.872.948,2.123.72,1.744-.3,11.065-4.473,11.482-14.67.607-12.889-11.785-27.066-33.738-26.952ZM46.17,175.449c-6.971,7.619-16.751,10.5-20.955,8.074-4.511-2.623-2.729-13.836,5.872-21.956a112.316,112.316,0,0,1,16.448-12.282c1.023-.607,2.5-1.516,4.321-2.616.3-.19.455-.265.455-.265.341-.227.72-.417,1.1-.644,3.143,11.524.114,21.683-7.24,29.682ZM97.1,140.8c-2.426,5.951-7.54,21.114-10.648,20.318-2.654-.682-4.284-12.244-.531-23.616,1.9-5.724,5.914-12.547,8.3-15.2,3.825-4.284,8.033-5.648,9.018-3.942,1.327,2.237-4.625,18.726-6.141,22.441Zm42.077,20.091c-1.023.531-1.971.872-2.426.607-.341-.19.417-.91.417-.91s5.269-5.648,7.354-8.226c1.213-1.516,2.616-3.3,4.128-5.269,0,.19.038.379.038.607-.049,6.785-6.566,11.372-9.522,13.192Zm32.441-7.392c-.758-.531-.644-2.312,1.9-7.847a29.463,29.463,0,0,1,7.2-9.287,13.716,13.716,0,0,1,.72,4.094c-.038,8.529-6.141,11.713-9.814,13.04Z" transform="translate(-0.004 -16.004)" fill="#080059"/></svg>